<?xml version="1.0" encoding="utf-8"?>
<svg width="91px" height="91px" viewBox="0 0 91 91" version="1.1" xmlns:xlink="http://www.w3.org/1999/xlink" xmlns="http://www.w3.org/2000/svg">
  <desc>Created with Lunacy</desc>
  <defs>
    <path d="M0 0L44 0L44 44L0 44L0 0Z" id="path_1" />
    <clipPath id="mask_1">
      <use xlink:href="#path_1" />
    </clipPath>
  </defs>
  <g id="ICON" transform="translate(1.5 1.5)">
    <path d="M44 88C68.3005 88 88 68.3005 88 44C88 19.6995 68.3005 0 44 0C19.6995 0 0 19.6995 0 44C0 68.3005 19.6995 88 44 88Z" id="Oval-Copy" fill="none" stroke="#C0C6D3" stroke-width="3" stroke-linecap="round" stroke-dasharray="0 11" />
    <path d="M38.5 77C59.763 77 77 59.763 77 38.5C77 17.237 59.763 0 38.5 0C17.237 0 0 17.237 0 38.5C0 59.763 17.237 77 38.5 77Z" transform="translate(5.5 5.5)" id="Oval-Copy-2" fill="#FFFFFF" fill-opacity="0.698039234" stroke="none" />
    <g id="Group-3" transform="translate(22 19)">
      <path d="M0 0L44 0L44 44L0 44L0 0Z" id="Clip-2" fill="none" stroke="none" />
      <g clip-path="url(#mask_1)">
        <path d="M20.9088 0.540646C21.1738 0.192472 21.5895 -0.00500031 22.026 0.00019632C22.4469 0.0105896 22.8366 0.208062 23.0912 0.540646L32.974 13.4283C33.1611 13.6673 33.2598 13.9584 33.2598 14.2598C33.265 15.0185 32.6519 15.6369 31.8881 15.6421L26.6453 15.6421L26.6453 25.8742C26.6453 26.6329 26.0269 27.2461 25.2631 27.241L18.7369 27.241C17.9783 27.2461 17.3599 26.6329 17.3547 25.8742L17.3547 15.6421L12.1068 15.6421C11.8106 15.6369 11.5196 15.5381 11.2806 15.3562C10.6727 14.8938 10.5635 14.0311 11.026 13.4283L20.9088 0.540646ZM22.0104 3.63264L29.0978 12.893L25.2631 12.893C24.5045 12.893 23.8914 13.5114 23.8966 14.2702L23.8966 24.4971L20.1086 24.4971L20.1086 14.2702C20.1086 13.5114 19.5007 12.893 18.7421 12.893L14.9022 12.893L22.0104 3.63264ZM0 27.8438C0.00519603 27.0851 0.618328 26.4718 1.37175 26.4718L10.9117 26.4718C11.6755 26.4667 12.2886 27.0851 12.2938 27.8438L12.2938 31.2112L31.7062 31.2112L31.7062 27.8438C31.7114 27.0851 32.3245 26.4667 33.0883 26.4718L42.6179 26.4718C43.3765 26.4667 44 27.0851 44 27.8438L44 42.6282C44 43.3921 43.3765 44.0001 42.6179 44.0001L1.37175 44.0001C0.618328 44.0001 0.00519603 43.3869 0 42.6282L0 27.8438ZM2.7539 29.2209L9.54511 29.2209L9.54511 32.5831C9.53992 33.3418 10.153 33.955 10.9117 33.9602L33.0883 33.9602C33.847 33.955 34.4653 33.3418 34.4601 32.5831L34.4601 29.2209L41.2461 29.2209L41.2461 41.2511L2.7539 41.2511L2.7539 29.2209ZM16.9443 36.8807C16.965 36.1168 17.5938 35.5192 18.3524 35.5348L25.71 35.5348C26.4686 35.5504 27.0713 36.1792 27.0557 36.9431C27.035 37.7018 26.4062 38.2994 25.6476 38.2838L18.29 38.2838C17.5314 38.263 16.9339 37.6342 16.9443 36.8807Z" transform="translate(0 -9.627541E-05)" id="Fill-1" fill="#006AC6" fill-rule="evenodd" stroke="none" />
      </g>
    </g>
  </g>
</svg>