<?xml version="1.0" encoding="utf-8"?>
<svg width="91px" height="91px" viewBox="0 0 91 91" version="1.1" xmlns:xlink="http://www.w3.org/1999/xlink" xmlns="http://www.w3.org/2000/svg">
  <desc>Created with Lunacy</desc>
  <g id="ICON" transform="translate(1.5 1.5)">
    <path d="M44 88C68.3005 88 88 68.3005 88 44C88 19.6995 68.3005 0 44 0C19.6995 0 0 19.6995 0 44C0 68.3005 19.6995 88 44 88Z" id="Oval-Copy" fill="none" stroke="#C0C6D3" stroke-width="3" stroke-linecap="round" stroke-dasharray="0 11" />
    <path d="M38.5 77C59.763 77 77 59.763 77 38.5C77 17.237 59.763 0 38.5 0C17.237 0 0 17.237 0 38.5C0 59.763 17.237 77 38.5 77Z" transform="translate(5.5 5.5)" id="Oval-Copy-2" fill="#FFFFFF" fill-opacity="0.698039234" stroke="none" />
    <path d="M37.6471 46.7451C37.6471 47.4369 38.2102 48 38.902 48L46.7451 48C47.4369 48 48 47.4369 48 46.7451L48 38.902C48 38.211 47.4369 37.6478 46.7451 37.6478L44.0784 37.6478L44.0784 19.2941C44.0784 18.6024 43.5153 18.0392 42.8235 18.0392L42.0392 18.0392C41.8047 18.0392 41.5757 18.1051 41.3733 18.2298L35.0996 22.1514C34.7169 22.3898 34.4918 22.8204 34.5106 23.2769C34.5333 23.7278 34.7984 24.1349 35.2031 24.3388L41.4792 27.4769C41.5082 27.4918 41.538 27.5043 41.5686 27.5169L41.5686 37.6478L38.902 37.6478C38.2102 37.6478 37.6471 38.211 37.6471 38.902L37.6471 41.5694L33.098 41.5694L33.098 38.902C33.098 38.211 32.5349 37.6478 31.8431 37.6478L24 37.6478C23.3082 37.6478 22.7451 38.211 22.7451 38.902L22.7451 41.5694L18.1961 41.5694L18.1961 38.902C18.1961 38.211 17.6329 37.6478 16.9412 37.6478L9.09804 37.6478C8.40627 37.6478 7.84314 38.211 7.84314 38.902L7.84314 41.5694L4.39216 41.5694C3.35451 41.5694 2.5098 40.7247 2.5098 39.6863L2.5098 33.4118C2.5098 32.3741 3.35451 31.5294 4.39216 31.5294L12.549 31.5294L12.549 34.1961C12.549 34.8878 13.1122 35.451 13.8039 35.451L21.6471 35.451C22.3388 35.451 22.902 34.8878 22.902 34.1961L22.902 31.5294L29.4902 31.5294C31.9122 31.5294 33.8824 29.5592 33.8824 27.1373L33.8824 16.6275L36.549 16.6275C37.2408 16.6275 37.8039 16.0651 37.8039 15.3725L37.8039 7.52941C37.8039 6.83765 37.2408 6.27451 36.549 6.27451L28.7059 6.27451C28.0141 6.27451 27.451 6.83765 27.451 7.52941L27.451 10.1961L18.1961 10.1961L18.1961 8.31373C18.1961 5.89176 16.2259 3.92157 13.8039 3.92157L10.3529 3.92157L10.3529 1.2549C10.3529 0.563137 9.7898 0 9.09804 0L1.2549 0C0.563137 0 0 0.563137 0 1.2549L0 9.09804C0 9.79059 0.563137 10.3529 1.2549 10.3529L9.09804 10.3529C9.7898 10.3529 10.3529 9.79059 10.3529 9.09804L10.3529 6.43137L13.8039 6.43137C14.8416 6.43137 15.6863 7.27608 15.6863 8.31373L15.6863 14.5882C15.6863 15.6267 14.8416 16.4706 13.8039 16.4706L10.3529 16.4706L10.3529 13.8039C10.3529 13.1122 9.7898 12.549 9.09804 12.549L1.2549 12.549C0.563137 12.549 0 13.1122 0 13.8039L0 21.6471C0 22.3396 0.563137 22.902 1.2549 22.902L9.09804 22.902C9.7898 22.902 10.3529 22.3396 10.3529 21.6471L10.3529 18.9804L13.8039 18.9804C16.2259 18.9804 18.1961 17.0102 18.1961 14.5882L18.1961 12.7059L27.451 12.7059L27.451 15.3725C27.451 16.0651 28.0141 16.6275 28.7059 16.6275L31.3726 16.6275L31.3726 27.1373C31.3726 28.1757 30.5278 29.0196 29.4902 29.0196L22.902 29.0196L22.902 26.3529C22.902 25.6612 22.3388 25.098 21.6471 25.098L13.8039 25.098C13.1122 25.098 12.549 25.6612 12.549 26.3529L12.549 29.0196L4.39216 29.0196C1.9702 29.0196 0 30.9906 0 33.4118L0 39.6863C0 42.1082 1.9702 44.0784 4.39216 44.0784L7.84314 44.0784L7.84314 46.7451C7.84314 47.4369 8.40627 48 9.09804 48L16.9412 48C17.6329 48 18.1961 47.4369 18.1961 46.7451L18.1961 44.0784L22.7451 44.0784L22.7451 46.7451C22.7451 47.4369 23.3082 48 24 48L31.8431 48C32.5349 48 33.098 47.4369 33.098 46.7451L33.098 44.0784L37.6471 44.0784L37.6471 46.7451ZM7 7L2 7L2 2L7 2L7 7ZM30 14L35 14L35 9L30 9L30 14ZM7 20L2 20L2 15L7 15L7 20ZM41 24L41 20L38 22.2216L41 24ZM20 32L15 32L15 27L20 27L20 32ZM10 45L15 45L15 40L10 40L10 45ZM30 45L25 45L25 40L30 40L30 45ZM45 45L45 40L43.6765 40L43.6765 42.9407L41.3235 42.9407L41.3235 40L40 40L40 45L45 45Z" transform="translate(21 19)" id="Fill-1" fill="#006AC6" fill-rule="evenodd" stroke="none" />
  </g>
</svg>