<?xml version="1.0" encoding="UTF-8"?>
<svg width="98px" height="122px" viewBox="0 0 98 122" version="1.1" xmlns="http://www.w3.org/2000/svg" xmlns:xlink="http://www.w3.org/1999/xlink">
    <!-- Generator: Sketch 63.1 (92452) - https://sketch.com -->
    <title>國際實績40年</title>
    <desc>Created with Sketch.</desc>
    <g id="1.-首頁" stroke="none" stroke-width="1" fill="none" fill-rule="evenodd">
        <g id="0.Index" transform="translate(-143.000000, -753.000000)">
            <g id="世界頂級防水工程品質-copy-3" transform="translate(0.000000, 545.000000)">
                <g id="世界頂級防水工程品質(展開前)" transform="translate(102.000000, 174.000000)">
                    <g id="國際實績40年">
                        <g id="Group-17" transform="translate(65.000000, 35.000000)" stroke="#FFFFFF" stroke-width="3">
                            <path d="M7,52.1913372 C20.7095527,60.0324591 38.2393056,55.3783352 46.1544102,41.7943356 C54.0710241,28.2118315 49.3723741,10.844113 35.6628214,3" id="Stroke-1"></path>
                            <path d="M26.8838845,48.2298709 C38.3767356,45.1287453 45.2828471,33.5559965 42.3097126,22.385661 C39.3365782,11.2123337 27.6089667,4.66900339 16.1161155,7.77012906 C4.62326436,10.8712547 -2.28284712,22.4425075 0.690287361,33.614339 C3.66342184,44.7876663 15.3910333,51.3309966 26.8838845,48.2298709 Z" id="Stroke-3"></path>
                            <line x1="23" y1="57" x2="23" y2="63" id="Stroke-5"></line>
                            <path d="M36,69 L9,69 C9,65.6865 11.6865,63 15,63 L30,63 C33.3135,63 36,65.6865 36,69 Z" id="Stroke-7"></path>
                            <line x1="11" y1="47" x2="5" y2="57" id="Stroke-9"></line>
                            <line x1="38" y1="0" x2="32" y2="11" id="Stroke-11"></line>
                            <path d="M39.4596537,40 L35.5478064,37.729672 L34.4456232,33.5961614 L31.837725,32.0826093 L29.746287,32.6153796 L28.4769694,31.8782798 L26.8236945,25.6757436 L19,21.1350875 L20.5057149,18.5136154 C21.3368695,17.0666596 23.1783588,16.5702146 24.6193279,17.4056953 L27.2949832,18.9585997 L31.3408391,17.8113272 L35.2526863,20.0816553 L41,17.9793315" id="Stroke-13" stroke-linejoin="round"></path>
                            <polygon id="Stroke-15" stroke-linejoin="round" points="16.638775 42 14.9242826 40.9908714 17.8179407 35.8803135 16.7588618 31.8497003 13 29.6366989 14.446829 27.08142 18.399566 26 23.4113817 28.9506685 25 34.9980636 21.3583313 41.430521"></polygon>
                        </g>
                        <text id="國際實際40年" font-family="NotoSansCJKtc-Medium, Noto Sans CJK TC" font-size="16" font-weight="400" fill="#FFFFFF">
                            <tspan x="40.88" y="154">國際實際40年</tspan>
                        </text>
                    </g>
                </g>
            </g>
        </g>
    </g>
</svg>