<?xml version="1.0" encoding="UTF-8"?>
<svg width="114px" height="136px" viewBox="0 0 114 136" version="1.1" xmlns="http://www.w3.org/2000/svg" xmlns:xlink="http://www.w3.org/1999/xlink">
    <!-- Generator: Sketch 63.1 (92452) - https://sketch.com -->
    <title>國內唯一</title>
    <desc>Created with Sketch.</desc>
    <g id="1.-首頁" stroke="none" stroke-width="1" fill="none" fill-rule="evenodd">
        <g id="0.Index" transform="translate(-348.000000, -750.000000)" fill="#FFFFFF">
            <g id="世界頂級防水工程品質-copy-3" transform="translate(0.000000, 545.000000)">
                <g id="世界頂級防水工程品質(展開前)" transform="translate(102.000000, 174.000000)">
                    <g id="國內唯一" transform="translate(213.000000, 0.000000)">
                        <text id="國內唯一-現場抽樣20年實績-與甲級營造" font-family="NotoSansCJKtc-Medium, Noto Sans CJK TC" font-size="14" font-weight="400">
                            <tspan x="62" y="125">國內唯一</tspan>
                            <tspan x="33.02" y="145">現場抽樣20年實績</tspan>
                            <tspan x="34" y="165">與甲級營造廠作證</tspan>
                        </text>
                        <g id="Group-5" transform="translate(60.000000, 31.000000)">
                            <path d="M42.92,51.7019321 C41.63936,51.7019321 40.6,50.6723977 40.6,49.4038642 C40.6,48.1353307 41.63936,47.1057962 42.92,47.1057962 C44.20064,47.1057962 45.24,48.1353307 45.24,49.4038642 C45.24,50.6723977 44.20064,51.7019321 42.92,51.7019321 L42.92,51.7019321 Z M29,35.6154566 C27.71936,35.6154566 26.68,34.5859222 26.68,33.3173887 C26.68,32.0488552 27.71936,31.0193208 29,31.0193208 C30.28064,31.0193208 31.32,32.0488552 31.32,33.3173887 C31.32,34.5859222 30.28064,35.6154566 29,35.6154566 L29,35.6154566 Z M15.08,14.9328453 C16.36064,14.9328453 17.4,15.9623798 17.4,17.2309133 C17.4,18.4994468 16.36064,19.5289812 15.08,19.5289812 C13.79936,19.5289812 12.76,18.4994468 12.76,17.2309133 C12.76,15.9623798 13.79936,14.9328453 15.08,14.9328453 L15.08,14.9328453 Z M53.36,14.9328453 C54.64064,14.9328453 55.68,15.9623798 55.68,17.2309133 C55.68,18.4994468 54.64064,19.5289812 53.36,19.5289812 C52.07936,19.5289812 51.04,18.4994468 51.04,17.2309133 C51.04,15.9623798 52.07936,14.9328453 53.36,14.9328453 L53.36,14.9328453 Z M47.8384,5.59119925 L52.2,3.12077624 L52.2,7.44114393 L47.8384,5.59119925 Z M48.72,32.1683548 L33.47528,32.1683548 C32.95792,30.1897183 31.15876,28.7212529 29,28.7212529 C26.84008,28.7212529 25.04092,30.1897183 24.52472,32.1683548 L9.28,32.1683548 C5.43692,32.1683548 2.32,29.0809005 2.32,25.274151 C2.32,21.4674015 5.43692,18.3799472 9.28,18.3799472 L10.60472,18.3799472 C11.12092,20.3585837 12.92008,21.8270491 15.08,21.8270491 C17.23992,21.8270491 19.03908,20.3585837 19.55528,18.3799472 L48.88472,18.3799472 C49.40208,20.3585837 51.20124,21.8270491 53.36,21.8270491 C55.92244,21.8270491 58,19.7691293 58,17.2309133 C58,15.091412 56.51868,13.3092604 54.52,12.7979403 L54.52,9.18767555 L54.52,1.14443782 C54.52,1.00310665 54.48636,0.868669674 54.43764,0.73997787 C54.4272,0.713550089 54.41792,0.688271342 54.40516,0.662992595 C54.30656,0.450421312 54.15112,0.265426845 53.94,0.144778279 C53.90752,0.126393736 53.8704,0.117201464 53.83676,0.102264022 C53.8182,0.0942207847 53.79964,0.087326581 53.77992,0.0792833433 C53.50848,-0.0264277811 53.21152,-0.0264277811 52.94008,0.0792833433 C52.92036,0.087326581 52.9018,0.0942207847 52.88324,0.102264022 C52.8496,0.117201464 52.81248,0.126393736 52.78,0.144778279 L44.66,4.74091412 C44.2772,4.95808154 44.05332,5.3728828 44.08,5.8095157 C44.10668,6.24499957 44.3816,6.62762788 44.7876,6.79768491 L52.2,9.94488893 L52.2,12.7979403 C50.576,13.2138905 49.30464,14.4720827 48.88472,16.0818793 L19.55528,16.0818793 C19.03908,14.1032428 17.23992,12.6347774 15.08,12.6347774 C12.92008,12.6347774 11.12092,14.1032428 10.60472,16.0818793 L9.28,16.0818793 C4.15512,16.0818793 0,20.197719 0,25.274151 C0,30.350583 4.15512,34.4664227 9.28,34.4664227 L24.52472,34.4664227 C25.04092,36.4450592 26.84008,37.9135246 29,37.9135246 C31.15876,37.9135246 32.95792,36.4450592 33.47528,34.4664227 L48.72,34.4664227 C52.56308,34.4664227 55.68,37.5538769 55.68,41.3606264 C55.68,45.1673759 52.56308,48.2548302 48.72,48.2548302 L47.39528,48.2548302 C46.87792,46.2750447 45.07876,44.8077283 42.92,44.8077283 C40.76124,44.8077283 38.96208,46.2750447 38.44472,48.2548302 L25.52,48.2548302 C24.87968,48.2548302 24.36,48.7684484 24.36,49.4038642 C24.36,50.0392799 24.87968,50.5528981 25.52,50.5528981 L38.44472,50.5528981 C38.96208,52.5326836 40.76124,54 42.92,54 C45.07876,54 46.87792,52.5326836 47.39528,50.5528981 L48.72,50.5528981 C53.84488,50.5528981 58,46.4370585 58,41.3606264 C58,36.2841944 53.84488,32.1683548 48.72,32.1683548 L48.72,32.1683548 Z" id="Fill-1"></path>
                            <path d="M16.3333333,55.6470588 L4.66666667,55.6470588 C3.37866667,55.6470588 2.33333333,54.5929412 2.33333333,53.2941176 L2.33333333,50.2882353 C3.02166667,50.6929412 3.81266667,50.9411765 4.66666667,50.9411765 L9.33333333,50.9411765 C9.33333333,51.5917647 9.856,52.1176471 10.5,52.1176471 C11.144,52.1176471 11.6666667,51.5917647 11.6666667,50.9411765 L16.3333333,50.9411765 C17.1873333,50.9411765 17.9783333,50.6929412 18.6666667,50.2882353 L18.6666667,53.2941176 C18.6666667,54.5929412 17.6213333,55.6470588 16.3333333,55.6470588 L16.3333333,55.6470588 Z M7,43.8823529 L14,43.8823529 L16.3333333,43.8823529 C17.6213333,43.8823529 18.6666667,44.9364706 18.6666667,46.2352941 C18.6666667,47.5341176 17.6213333,48.5882353 16.3333333,48.5882353 L11.6666667,48.5882353 C11.6666667,47.9376471 11.144,47.4117647 10.5,47.4117647 C9.856,47.4117647 9.33333333,47.9376471 9.33333333,48.5882353 L4.66666667,48.5882353 C3.37866667,48.5882353 2.33333333,47.5341176 2.33333333,46.2352941 C2.33333333,44.9364706 3.37866667,43.8823529 4.66666667,43.8823529 L7,43.8823529 Z M8.16666667,41.5294118 L12.8333333,41.5294118 L12.8333333,40.3529412 L8.16666667,40.3529412 L8.16666667,41.5294118 Z M15.1666667,41.5294118 L15.1666667,40.3529412 C15.1666667,39.0541176 14.1213333,38 12.8333333,38 L8.16666667,38 C6.87866667,38 5.83333333,39.0541176 5.83333333,40.3529412 L5.83333333,41.5294118 L4.66666667,41.5294118 C2.0895,41.5294118 0,43.6364706 0,46.2352941 L0,53.2941176 C0,55.8929412 2.0895,58 4.66666667,58 L16.3333333,58 C18.9105,58 21,55.8929412 21,53.2941176 L21,46.2352941 C21,43.6364706 18.9105,41.5294118 16.3333333,41.5294118 L15.1666667,41.5294118 Z" id="Fill-3"></path>
                        </g>
                    </g>
                </g>
            </g>
        </g>
    </g>
</svg>