<?xml version="1.0" encoding="UTF-8"?>
<svg width="7px" height="13px" viewBox="0 0 7 13" version="1.1" xmlns="http://www.w3.org/2000/svg" xmlns:xlink="http://www.w3.org/1999/xlink">
    <!-- Generator: Sketch 63.1 (92452) - https://sketch.com -->
    <title>Page 1</title>
    <desc>Created with Sketch.</desc>
    <defs>
        <polygon id="path-1" points="6.44978793 6.37005337 6.44978793 12.7400006 0 12.7400006 0 6.37005337 0 0.000106166671 6.44978793 0.000106166671 6.44978793 6.37005337"></polygon>
    </defs>
    <g id="Symbols" stroke="none" stroke-width="1" fill="none" fill-rule="evenodd">
        <g id="navi" transform="translate(-757.000000, -28.000000)">
            <g id="Page-1">
                <g transform="translate(757.000000, 28.000000)">
                    <mask id="mask-2" fill="white">
                        <use xlink:href="#path-1"></use>
                    </mask>
                    <g id="Clip-2"></g>
                    <path d="M0,4.21315358 L1.3817526,4.21315358 L1.3817526,2.9334913 C1.3817526,2.36868461 1.39660616,1.4981179 1.82661678,0.959145099 C2.28002176,0.387968406 2.902386,0.000106166671 3.9722138,0.000106166671 C5.71602197,0.000106166671 6.44978793,0.237211733 6.44978793,0.237211733 L6.10444261,2.18855515 C6.10444261,2.18855515 5.52849575,2.02965904 4.99116815,2.02965904 C4.4534692,2.02965904 3.9722138,2.21332738 3.9722138,2.72505073 L3.9722138,4.21315358 L6.17648239,4.21315358 L6.02274802,6.11919922 L3.9722138,6.11919922 L3.9722138,12.7401067 L1.3817526,12.7401067 L1.3817526,6.11919922 L0,6.11919922 L0,4.21315358 Z" id="Fill-1" fill="#9B9B9B" mask="url(#mask-2)"></path>
                </g>
            </g>
        </g>
    </g>
</svg>