<?xml version="1.0" encoding="UTF-8"?>
<svg width="12px" height="12px" viewBox="0 0 12 12" version="1.1" xmlns="http://www.w3.org/2000/svg" xmlns:xlink="http://www.w3.org/1999/xlink">
    <!-- Generator: Sketch 63.1 (92452) - https://sketch.com -->
    <title>Page 1</title>
    <desc>Created with Sketch.</desc>
    <defs>
        <polygon id="path-1" points="12 11.9915 12 0.000166666667 3.33333334e-05 0.000166666667 3.33333334e-05 11.9915 12 11.9915"></polygon>
    </defs>
    <g id="Symbols" stroke="none" stroke-width="1" fill="none" fill-rule="evenodd">
        <g id="navi" transform="translate(-775.000000, -29.000000)">
            <g id="Page-1">
                <g transform="translate(775.000000, 29.000000)">
                    <mask id="mask-2" fill="white">
                        <use xlink:href="#path-1"></use>
                    </mask>
                    <g id="Clip-2"></g>
                    <path d="M10.8307,9.67416667 C10.8307,10.3081667 10.3150333,10.8228333 9.6807,10.8228333 L2.31903333,10.8228333 C1.6847,10.8228333 1.16936667,10.3081667 1.16936667,9.67416667 L1.16936667,4.7645 L2.9607,4.7645 C2.80636667,5.1455 2.7187,5.5605 2.7187,5.99583333 C2.7187,7.8045 4.1907,9.27483333 6.00003333,9.27483333 C7.80936667,9.27483333 9.28103333,7.8045 9.28103333,5.99583333 C9.28103333,5.5605 9.19303333,5.1455 9.03936667,4.7645 L10.8307,4.7645 L10.8307,9.67416667 Z M4.2877,4.7645 C4.67103333,4.23316667 5.29503333,3.8845 6.00003333,3.8845 C6.70503333,3.8845 7.32836667,4.23316667 7.71203333,4.7645 C7.96236667,5.1115 8.11303333,5.5355 8.11303333,5.99583333 C8.11303333,7.15983333 7.1647,8.10583333 6.00003333,8.10583333 C4.83503333,8.10583333 3.8877,7.15983333 3.8877,5.99583333 C3.8877,5.5355 4.0377,5.1115 4.2877,4.7645 L4.2877,4.7645 Z M10.3457,1.3825 L10.6107,1.38116667 L10.6107,1.6455 L10.6107,3.4135 L8.5837,3.42083333 L8.57636667,1.38816667 L10.3457,1.3825 Z M9.6807,0.000166666667 L2.31903333,0.000166666667 C1.0407,0.000166666667 3.33333334e-05,1.0395 3.33333334e-05,2.3175 L3.33333334e-05,4.7645 L3.33333334e-05,9.67416667 C3.33333334e-05,10.9521667 1.0407,11.9915 2.31903333,11.9915 L9.6807,11.9915 C10.9590333,11.9915 12.0000333,10.9521667 12.0000333,9.67416667 L12.0000333,4.7645 L12.0000333,2.3175 C12.0000333,1.0395 10.9590333,0.000166666667 9.6807,0.000166666667 L9.6807,0.000166666667 Z" id="Fill-1" fill="#9B9B9B" mask="url(#mask-2)"></path>
                </g>
            </g>
        </g>
    </g>
</svg>