<?xml version="1.0" encoding="UTF-8"?>
<svg width="13px" height="12px" viewBox="0 0 13 12" version="1.1" xmlns="http://www.w3.org/2000/svg" xmlns:xlink="http://www.w3.org/1999/xlink">
    <!-- Generator: Sketch 63.1 (92452) - https://sketch.com -->
    <title>Page 1</title>
    <desc>Created with Sketch.</desc>
    <defs>
        <polygon id="path-1" points="12.9342249 0.000115246098 8.4383075e-05 0.000115246098 8.4383075e-05 11.9615069 12.9342249 11.9615069 12.9342249 0.000115246098"></polygon>
    </defs>
    <g id="Symbols" stroke="none" stroke-width="1" fill="none" fill-rule="evenodd">
        <g id="navi" transform="translate(-796.000000, -29.000000)">
            <g id="Page-1">
                <g transform="translate(796.000000, 29.000000)">
                    <mask id="mask-2" fill="white">
                        <use xlink:href="#path-1"></use>
                    </mask>
                    <g id="Clip-2"></g>
                    <path d="M4.54545,5.19359424 C4.54545,5.56468667 4.54958636,5.93606723 4.54397273,6.30715966 C4.54042727,6.54860024 4.59124545,6.72867227 4.89585909,6.72463866 C5.18097273,6.72118127 5.2312,6.55292197 5.23001818,6.32329412 C5.22617727,5.55978872 5.22676818,4.7959952 5.22972273,4.03220168 C5.23031364,3.80545498 5.18540455,3.63546699 4.89585909,3.63172149 C4.58651818,3.62739976 4.54190455,3.8094886 4.54456364,4.04804802 C4.54840455,4.42980072 4.54545,4.81184154 4.54545,5.19359424 L4.54545,5.19359424 Z M2.92429091,6.06514286 L2.92429091,5.69232173 C2.92399545,5.12992077 2.92842727,4.56723169 2.92192727,4.00483073 C2.91956364,3.78730372 2.81674545,3.62739976 2.56856364,3.63863625 C2.34401818,3.64872029 2.25006364,3.79652341 2.24976818,4.00511885 C2.24888182,4.77986074 2.25006364,5.55460264 2.24888182,6.32934454 C2.24858636,6.59181753 2.38183636,6.72146939 2.64922273,6.72146939 C3.04099545,6.72204562 3.43276818,6.71945258 3.82454091,6.72233373 C4.06533636,6.72435054 4.24733636,6.63676351 4.23876818,6.3835102 C4.23049545,6.13227371 4.04140455,6.05822809 3.80356364,6.06370228 C3.52288182,6.07004082 3.24160909,6.06514286 2.92429091,6.06514286 L2.92429091,6.06514286 Z M9.47865455,4.28401441 C9.80631364,4.28401441 10.0994045,4.2819976 10.3924955,4.28459064 C10.6241318,4.28631933 10.7869273,4.18547899 10.7845636,3.95585114 C10.7819045,3.72852821 10.6220636,3.62941657 10.3874727,3.63316206 C10.0069273,3.63892437 9.62579091,3.63287395 9.24495,3.63517887 C8.90074545,3.63748379 8.79113182,3.73601921 8.78906364,4.06533493 C8.78463182,4.80809604 8.79024545,5.55114526 8.78640455,6.29390636 C8.78492727,6.58346218 8.91610909,6.72694358 9.21895,6.72319808 C9.59979091,6.71830012 9.98063182,6.71887635 10.3614727,6.72290996 C10.6016773,6.72579112 10.7889955,6.640509 10.7839727,6.39042497 C10.7792455,6.14581513 10.5960636,6.05707563 10.3537909,6.06341417 C10.0648364,6.07090516 9.77558636,6.06514286 9.48131364,6.06514286 L9.48131364,5.49755582 C9.79360909,5.49755582 10.0849273,5.49236975 10.37595,5.49928451 C10.6061091,5.50504682 10.7795409,5.41861224 10.7845636,5.18898439 C10.7901773,4.94495078 10.6185182,4.84180552 10.3715182,4.84670348 C10.0804955,4.85217767 9.78917727,4.84785594 9.47865455,4.84785594 L9.47865455,4.28401441 Z M6.37431364,4.93890036 C6.49574545,5.08238175 6.56310909,5.15844418 6.62633636,5.23767587 C6.97349545,5.67301801 7.31031364,6.11671549 7.67342727,6.53909244 C7.75379091,6.63272989 7.94554091,6.71657143 8.05072273,6.68660744 C8.15915455,6.65606723 8.29388182,6.48233373 8.29713182,6.3682401 C8.31840455,5.57304202 8.31279091,4.77726771 8.3057,3.9814934 C8.30392727,3.77664346 8.18988182,3.63345018 7.96267727,3.63748379 C7.7337,3.64151741 7.64092727,3.79047299 7.63324545,3.99532293 C7.62645,4.17539496 7.63088182,4.35604322 7.63088182,4.53640336 C7.63058636,4.80463866 7.63088182,5.07287395 7.63088182,5.42667947 C7.18001818,4.85563505 6.80183636,4.35316206 6.39351818,3.87546699 C6.29395,3.75878031 6.06408636,3.63489076 5.95151818,3.67321008 C5.83422273,3.7132581 5.72342727,3.94403842 5.71840455,4.09472269 C5.69476818,4.81558703 5.71101818,5.53731573 5.70599545,6.2587563 C5.70451818,6.49529892 5.75474545,6.70706363 6.03601818,6.71369028 C6.34949545,6.72146939 6.37963182,6.4892485 6.37608636,6.24579112 C6.37017727,5.83753181 6.37431364,5.42898439 6.37431364,4.93890036 L6.37431364,4.93890036 Z M6.39529091,2.88115249e-05 C8.44308636,0.118444178 10.2320636,0.628408163 11.6505409,2.04910444 C13.1694727,3.57035294 13.3520636,5.7107611 12.1362682,7.4699928 C10.9048136,9.25198559 9.17226818,10.4372917 7.28342727,11.4477119 C6.97792727,11.6110732 6.66799545,11.7669436 6.35185909,11.9095606 C6.03956364,12.050449 5.80497273,11.8951549 5.82476818,11.5597887 C5.84397273,11.2313373 5.88267727,10.9037503 5.92404091,10.5770276 C5.97545,10.1733782 5.88799545,10.0601489 5.48381364,10.0074238 C3.90726818,9.80228571 2.49204091,9.24852821 1.36813182,8.11796399 C-0.577140909,6.16137335 -0.400459091,3.5694886 1.59651818,1.7742425 C2.64745,0.829512605 3.91642727,0.33164946 5.31540455,0.126511405 C5.70215455,0.0697527011 6.09245,0.0348907563 6.39529091,2.88115249e-05 L6.39529091,2.88115249e-05 Z" id="Fill-1" fill="#9B9B9B" mask="url(#mask-2)"></path>
                </g>
            </g>
        </g>
    </g>
</svg>