<?xml version="1.0" encoding="UTF-8"?>
<svg width="127px" height="46px" viewBox="0 0 127 46" version="1.1" xmlns="http://www.w3.org/2000/svg" xmlns:xlink="http://www.w3.org/1999/xlink">
    <!-- Generator: Sketch 63.1 (92452) - https://sketch.com -->
    <title>Page 1</title>
    <desc>Created with Sketch.</desc>
    <defs>
        <polygon id="path-1" points="10.9710976 0.0230884436 0.0303249472 0.0230884436 0.0303249472 10.601543 10.9710976 10.601543 10.9710976 0.0230884436"></polygon>
        <polygon id="path-3" points="1.53541596e-20 0.340293868 1.53541596e-20 11.7750318 17.0392971 11.7750318 17.0392971 0.340293868 0 0.340293868"></polygon>
    </defs>
    <g id="Symbols" stroke="none" stroke-width="1" fill="none" fill-rule="evenodd">
        <g id="navi" transform="translate(-42.000000, -25.000000)">
            <g id="Page-1">
                <g transform="translate(42.000000, 25.000000)">
                    <g id="Group-3" transform="translate(6.797622, 0.349306)">
                        <mask id="mask-2" fill="white">
                            <use xlink:href="#path-1"></use>
                        </mask>
                        <g id="Clip-2"></g>
                        <path d="M10.0994914,0.0229394859 C10.5809896,0.0229394859 10.9710976,0.407622748 10.9710976,0.88242542 L10.9710976,5.31242744 C10.9710976,8.23311556 8.52168782,10.601543 5.50052246,10.601543 C2.47973476,10.601543 0.0303249472,8.23311556 0.0303249472,5.31242744 C0.0303249472,2.39136693 2.47973476,0.0229394859 5.50052246,0.0229394859 L10.0994914,0.0229394859 Z" id="Fill-1" fill="#00A3E0" mask="url(#mask-2)"></path>
                    </g>
                    <path d="M36.2132363,26.2753192 L28.9597959,26.2753192 L39.8665805,9.33473224 C40.4893182,8.36799676 41.5701401,7.7822206 42.7317782,7.7822206 L50.510146,7.7822206 L39.8850851,24.2852443 C39.0871198,25.5245724 37.7019155,26.2753192 36.2132363,26.2753192" id="Fill-4" fill="#006AC6"></path>
                    <g id="Group-8" transform="translate(0.000000, 14.500287)">
                        <mask id="mask-4" fill="white">
                            <use xlink:href="#path-3"></use>
                        </mask>
                        <g id="Clip-7"></g>
                        <path d="M7.78320171,11.7750318 L-7.55291338e-05,11.7750318 L6.11400785,2.32887917 C6.91197315,1.09066829 8.29679982,0.340293868 9.78472376,0.340293868 L17.0392971,0.340293868 L10.6442453,10.2281061 C10.0211299,11.1918624 8.94219627,11.7750318 7.78320171,11.7750318" id="Fill-6" fill="#006AC6" mask="url(#mask-4)"></path>
                    </g>
                    <path d="M22.3019028,26.2753192 L14.522402,26.2753192 L23.0579494,13.0303728 C23.6806871,12.0643821 24.7611313,11.4789783 25.9220141,11.4789783 L33.7018926,11.4789783 L25.1659675,24.7239247 C24.5432298,25.6899154 23.4627855,26.2753192 22.3019028,26.2753192" id="Fill-9" fill="#006AC6"></path>
                    <path d="M0.0263974323,45.1944368 L0.0263974323,34.1577883 C0.0263974323,33.3351694 0.702760826,32.6682113 1.53698011,32.6682113 L2.82097538,32.6682113 L2.82097538,37.6251512 L7.97470583,37.6251512 L7.97470583,34.1577883 C7.97470583,33.3351694 8.65106922,32.6682113 9.48528851,32.6682113 L10.7692838,32.6682113 L10.7692838,43.7048597 C10.7692838,44.5274786 10.0929204,45.1944368 9.2587011,45.1944368 L7.97470583,45.1944368 L7.97470583,40.1659972 L2.82097538,40.1659972 L2.82097538,43.7048597 C2.82097538,44.5274786 2.14498964,45.1944368 1.31039271,45.1944368 L0.0263974323,45.1944368 Z" id="Fill-11" fill="#373A36"></path>
                    <path d="M17.0300447,45.1944368 L17.0300447,40.2553718 L12.1482192,32.6682113 L15.4148542,32.6682113 L18.4454607,37.6966509 L20.8691906,33.7462927 C21.2796915,33.0771002 22.0149676,32.6682113 22.8080235,32.6682113 L24.7060706,32.6682113 L19.824245,40.2021194 L19.824245,43.7048597 C19.824245,44.5274786 19.1482593,45.1944368 18.3136624,45.1944368 L17.0300447,45.1944368 Z" id="Fill-13" fill="#373A36"></path>
                    <path d="M28.8794329,42.7069549 L31.0388108,42.7069549 C32.1759019,42.7069549 33.0984903,42.3610006 33.8061983,41.6690921 C34.5139063,40.9771836 34.8677603,40.0767343 34.8677603,38.9669994 L34.8677603,38.9312495 C34.8677603,37.8218871 34.5139063,36.9154795 33.8061983,36.2116543 C33.0984903,35.5078292 32.1759019,35.1559166 31.0388108,35.1559166 L28.8794329,35.1559166 L28.8794329,42.7069549 Z M26.0848549,45.1945485 L26.0848549,34.1579 C26.0848549,33.3352811 26.7608407,32.668323 27.5954376,32.668323 L31.0388108,32.668323 C33.0104989,32.668323 34.6290882,33.2619194 35.8930683,34.4487399 C37.1570483,35.6363052 37.7896048,37.1180619 37.7896048,38.8958721 L37.7896048,38.9312495 C37.7896048,40.7209763 37.1570483,42.2124153 35.8930683,43.4048217 C34.6290882,44.5979729 33.0104989,45.1945485 31.0388108,45.1945485 L26.0848549,45.1945485 Z" id="Fill-15" fill="#373A36"></path>
                    <path d="M42.7073822,38.7524631 L45.5382142,38.7524631 C46.2036259,38.7524631 46.7270427,38.5912164 47.1077096,38.2690953 C47.4891317,37.9473467 47.6794651,37.5179761 47.6794651,36.9809836 L47.6794651,36.9448614 C47.6794651,36.3605748 47.4857329,35.9163084 47.0990237,35.6116899 C46.7115593,35.3078162 46.1734142,35.1558794 45.4838332,35.1558794 L42.7073822,35.1558794 L42.7073822,38.7524631 Z M39.9128043,45.1945112 L39.9128043,34.1578628 C39.9128043,33.3352439 40.58879,32.6682858 41.423387,32.6682858 L45.7198617,32.6682858 C47.3282547,32.6682858 48.5624007,33.0920704 49.4215446,33.938895 C50.1473796,34.6546367 50.5102971,35.6094556 50.5102971,36.8022344 L50.5102971,36.8376118 C50.5102971,38.7587938 49.6031922,40.0528638 47.7886047,40.7209391 L50.0835575,44.0292896 C50.4260821,44.5234568 50.0673187,45.1945112 49.4600645,45.1945112 L47.6250842,45.1945112 L44.9030142,41.1860595 L42.7073822,41.1860595 L42.7073822,43.7049342 C42.7073822,44.5275531 42.0310189,45.1945112 41.1967996,45.1945112 L39.9128043,45.1945112 Z" id="Fill-17" fill="#373A36"></path>
                    <path d="M56.1174667,41.7229031 C56.8436793,42.4866837 57.7624912,42.8680154 58.8761683,42.8680154 C59.9887124,42.8680154 60.9022373,42.4922696 61.6163653,41.740778 C62.3297379,40.9892864 62.6869907,40.0650038 62.6869907,38.9671856 L62.6869907,38.9314357 C62.6869907,37.8339899 62.3240732,36.903749 61.5978606,36.1399684 C60.8720256,35.3765602 59.9524584,34.9948561 58.8395366,34.9948561 C57.7266149,34.9948561 56.81309,35.3702295 56.0993397,36.1220935 C55.3855894,36.8735851 55.0287142,37.79824 55.0287142,38.8956859 L55.0287142,38.9314357 C55.0287142,40.0288816 55.3916317,40.9594948 56.1174667,41.7229031 M63.6756671,43.5211949 C62.3875177,44.7802599 60.7749707,45.4088614 58.8395366,45.4088614 C56.9037249,45.4088614 55.2979756,44.7862182 54.0215332,43.5390698 C52.7450908,42.2926663 52.1072473,40.7684566 52.1072473,38.9671856 L52.1072473,38.9314357 C52.1072473,37.1301647 52.7515108,35.6003692 54.0396602,34.3416766 C55.3281872,33.082984 56.9403566,32.4536377 58.8761683,32.4536377 C60.8116023,32.4536377 62.4173517,33.0770257 63.6937941,34.3238017 C64.9698588,35.5705776 65.6084576,37.0944149 65.6084576,38.8956859 L65.6084576,38.9314357 C65.6084576,40.7330791 64.9641941,42.2628747 63.6756671,43.5211949" id="Fill-19" fill="#373A36"></path>
                    <g id="Group-29" transform="translate(69.864449, 32.375211)" fill="#373A36">
                        <path d="M5.37918491,12.9979745 C3.43128855,12.9979745 1.70129374,12.3302716 0.18920048,10.994121 L1.07817839,9.95625825 C1.75567472,10.5643781 2.43619221,11.0116236 3.12010852,11.2983671 C3.80326953,11.5847383 4.57442199,11.7273653 5.43356589,11.7273653 C6.28024748,11.7273653 6.96378614,11.5281344 7.48418187,11.128183 C8.00419996,10.7286039 8.26439782,10.2187962 8.26439782,9.59838737 L8.26439782,9.56263752 C8.26439782,8.95414531 8.03441161,8.47114997 7.57481683,8.11327909 C7.11522205,7.75540822 6.24399349,7.44483141 4.96188645,7.18229346 C3.4615002,6.86091722 2.3757689,6.42782271 1.70469255,5.88524428 C1.0328609,5.34266586 0.697511551,4.56957539 0.697511551,3.56820725 L0.697511551,3.53171261 C0.697511551,2.54188869 1.09026305,1.72522809 1.87689898,1.08061364 C2.66315726,0.436371585 3.66089712,0.113878162 4.87087384,0.113878162 C6.55215236,0.113878162 8.04045394,0.627409836 9.33540094,1.65298361 L8.50042637,2.74484355 C7.37504227,1.83843594 6.15335853,1.38448735 4.8349975,1.38448735 C4.0238146,1.38448735 3.37086524,1.57887715 2.87463883,1.96653957 C2.37879007,2.35420198 2.13067686,2.83421817 2.13067686,3.40658814 L2.13067686,3.44233799 C2.13067686,4.06274681 2.36934893,4.55207286 2.84782599,4.90994374 C3.32554776,5.26781461 4.23605147,5.58993564 5.57858182,5.87593443 C7.01816711,6.18651123 8.06764443,6.61848857 8.72701377,7.173356 C9.3863831,7.72859583 9.71606777,8.47673588 9.71606777,9.41963813 L9.71606777,9.45501558 C9.71606777,10.517084 9.31047633,11.3732184 8.50042637,12.022674 C7.68962111,12.6736191 6.6492073,12.9979745 5.37918491,12.9979745" id="Fill-21"></path>
                        <polygon id="Fill-23" points="15.5413277 12.8190763 15.5413277 0.29285084 24.7234045 0.29285084 24.7234045 1.58170735 16.9752484 1.58170735 16.9752484 5.85865533 23.9069346 5.85865533 23.9069346 7.14676705 16.9752484 7.14676705 16.9752484 11.5309646 24.8144172 11.5309646 24.8144172 12.8190763"></polygon>
                        <path d="M33.0531728,8.23832908 L38.8421033,8.23832908 L35.9565127,1.85027808 L33.0531728,8.23832908 Z M29.5146329,12.8191508 L35.3035634,0.203550698 L36.6464714,0.203550698 L42.4350242,12.8191508 L40.8927193,12.8191508 L39.4044177,9.50893827 L32.4908584,9.50893827 L30.9844299,12.8191508 L29.5146329,12.8191508 Z" id="Fill-25"></path>
                        <polygon id="Fill-27" points="47.8425703 12.8190763 47.8425703 0.29285084 49.2764909 0.29285084 49.2764909 11.5127173 56.4260787 11.5127173 56.4260787 12.8190763"></polygon>
                    </g>
                </g>
            </g>
        </g>
    </g>
</svg>