<?xml version="1.0" encoding="UTF-8"?>
<svg width="21px" height="20px" viewBox="0 0 21 20" version="1.1" xmlns="http://www.w3.org/2000/svg" xmlns:xlink="http://www.w3.org/1999/xlink">
    <!-- Generator: Sketch 63.1 (92452) - https://sketch.com -->
    <title>Shape Copy</title>
    <desc>Created with Sketch.</desc>
    <g id="1.-首頁" stroke="none" stroke-width="1" fill="none" fill-rule="evenodd">
        <g id="Search" transform="translate(-726.000000, -128.000000)" fill="#FFFFFF">
            <g id="Group-2" transform="translate(0.000000, 96.000000)">
                <g id="Group" transform="translate(278.000000, 23.000000)">
                    <path d="M448.25,17.0551503 C448.25,21.4940032 451.866304,25.1103089 456.305147,25.1103089 C458.224908,25.1103089 459.988291,24.43167 461.374335,23.3048366 L466.82545,28.7559479 C467.150841,29.0813368 467.680533,29.0813646 468.005944,28.7559479 C468.331352,28.4305312 468.331352,27.9095312 468.005944,27.5841423 L462.554832,22.133031 C463.68394,20.746281 464.360295,18.9770587 464.360295,17.0551503 C464.360295,12.6162807 460.743988,9 456.305147,9 C451.86631,9 448.25,12.6162807 448.25,17.0551503 Z M456.25,10.7142857 C459.731185,10.7142857 462.535714,13.5187886 462.535714,16.9999959 C462.535714,20.4811622 459.73118,23.2857143 456.25,23.2857143 C452.76882,23.2857143 449.964286,20.4811622 449.964286,16.9999959 C449.964286,13.5187886 452.768815,10.7142857 456.25,10.7142857 L456.25,10.7142857 Z" id="Shape-Copy"></path>
                </g>
            </g>
        </g>
    </g>
</svg>