<?xml version="1.0" encoding="UTF-8"?>
<svg width="18px" height="18px" viewBox="0 0 18 18" version="1.1" xmlns="http://www.w3.org/2000/svg" xmlns:xlink="http://www.w3.org/1999/xlink">
    <!-- Generator: Sketch 63.1 (92452) - https://sketch.com -->
    <title>Shape</title>
    <desc>Created with Sketch.</desc>
    <g id="Symbols" stroke="none" stroke-width="1" fill="none" fill-rule="evenodd" fill-opacity="0.8">
        <g id="navi" transform="translate(-964.000000, -71.000000)" fill="#000000">
            <g id="Shape">
                <path d="M964,78.2496353 C964,82.2446029 967.254674,85.499278 971.249633,85.499278 C972.977417,85.499278 974.564462,84.888503 975.811901,83.8743529 L980.717905,88.7803531 C981.010757,89.0732031 981.48748,89.0732281 981.780349,88.7803531 C982.073217,88.4874781 982.073217,88.0185781 981.780349,87.7257281 L976.874348,82.8197279 C977.890546,81.5716529 978.499265,79.9793528 978.499265,78.2496353 C978.499265,74.2546526 975.244589,71 971.249633,71 C967.254679,71 964,74.2546526 964,78.2496353 Z M971.249633,72.4999251 C974.433964,72.4999251 976.999341,75.0652801 976.999341,78.2496353 C976.999341,81.4339529 974.433959,83.999353 971.249633,83.999353 C968.065306,83.999353 965.499925,81.4339529 965.499925,78.2496353 C965.499925,75.0652801 968.065301,72.4999251 971.249633,72.4999251 L971.249633,72.4999251 Z"></path>
            </g>
        </g>
    </g>
</svg>