<?xml version="1.0" encoding="UTF-8"?>
<svg width="15px" height="12px" viewBox="0 0 15 12" version="1.1" xmlns="http://www.w3.org/2000/svg" xmlns:xlink="http://www.w3.org/1999/xlink">
    <!-- Generator: Sketch 63.1 (92452) - https://sketch.com -->
    <title>wechat</title>
    <desc>Created with Sketch.</desc>
    <defs>
        <polygon id="path-1" points="2.40480962e-06 0.000221923937 8.99819639 0.000221923937 8.99819639 7.99999733 2.40480962e-06 7.99999733"></polygon>
        <polygon id="path-3" points="0 0.00513505218 10.9981593 0.00513505218 10.9981593 9.99407434 0 9.99407434"></polygon>
    </defs>
    <g id="Symbols" stroke="none" stroke-width="1" fill="none" fill-rule="evenodd">
        <g id="navi" transform="translate(-835.000000, -29.000000)">
            <g id="wechat">
                <g transform="translate(835.000000, 29.000000)">
                    <g id="Group-3" transform="translate(6.000000, 4.000000)">
                        <mask id="mask-2" fill="white">
                            <use xlink:href="#path-1"></use>
                        </mask>
                        <g id="Clip-2"></g>
                        <path d="M5.92124489,3.27180433 C5.5779523,3.27180433 5.30320281,2.99917793 5.30320281,2.65853065 C5.30320281,2.3178953 5.5779523,2.04525697 5.92124489,2.04525697 C6.26453146,2.04525697 6.53928096,2.3178953 6.53928096,2.65853065 C6.53928096,2.99917793 6.25070381,3.27180433 5.92124489,3.27180433 M2.88517275,3.27180433 C2.54188016,3.27180433 2.26713066,2.99917793 2.26713066,2.65853065 C2.26713066,2.3178953 2.54188016,2.04525697 2.88517275,2.04525697 C3.22845932,2.04525697 3.50320882,2.3178953 3.50320882,2.65853065 C3.50320882,2.99917793 3.22845932,3.27180433 2.88517275,3.27180433 M8.9981988,3.76218464 C8.9981988,1.69029799 6.97875391,0.000221923937 4.49218677,0.000221923937 C2.00560762,0.000221923937 2.40480962e-06,1.69029799 2.40480962e-06,3.76218464 C2.40480962e-06,5.83407129 2.01944128,7.52415928 4.50601443,7.52415928 C4.98697635,7.52415928 5.44028297,7.46986547 5.86593427,7.34697808 C5.98977595,7.3195299 6.1268501,7.33325697 6.25070381,7.38813542 L7.36352345,7.98768799 C7.43206653,8.0288513 7.52825892,7.96024579 7.5005976,7.87851573 L7.28056353,6.99260969 C7.25290822,6.8565918 7.29438517,6.71997733 7.41763166,6.63825324 C8.38016273,5.94324952 8.9981988,4.92072304 8.9981988,3.76218464" id="Fill-1" fill="#9B9B9B" mask="url(#mask-2)"></path>
                    </g>
                    <g id="Group-6">
                        <mask id="mask-4" fill="white">
                            <use xlink:href="#path-3"></use>
                        </mask>
                        <g id="Clip-5"></g>
                        <path d="M3.68444693,3.91857888 C3.2779252,3.91857888 2.94191628,3.58217618 2.94191628,3.17517802 C2.94191628,2.76817986 3.2779252,2.43177716 3.68444693,2.43177716 C4.09096867,2.43177716 4.42697759,2.76817986 4.42697759,3.17517802 C4.42697759,3.58217618 4.10507124,3.91857888 3.68444693,3.91857888 M7.41120279,2.43177716 C7.81772453,2.43177716 8.15373344,2.76817986 8.15373344,3.17517802 C8.15373344,3.58217618 7.81772453,3.91857888 7.41120279,3.91857888 C7.00468105,3.91857888 6.66867213,3.58217618 6.66867213,3.17517802 C6.66867213,2.76817986 7.0052942,2.43177716 7.41120279,2.43177716 M5.77223958,8.08432474 C5.77223958,5.71415899 8.01393411,3.79212093 10.7878472,3.79212093 L10.9981593,3.79212093 C10.5493299,1.64601903 8.2800495,0.00513505218 5.54782486,0.00513505218 C2.47959744,0.00513505218 -1.22630992e-06,2.05301719 -1.22630992e-06,4.59199816 C-1.22630992e-06,5.9946992 0.77073456,7.2568232 1.97558406,8.09844383 C2.05958629,8.15430632 2.08779142,8.25252609 2.07368885,8.35074586 L1.6536777,9.83754758 C1.62547258,9.93576734 1.73767993,10.0339871 1.83578473,9.97751074 L3.47474794,8.99592695 C3.5869553,8.92594537 3.71265206,8.91182627 3.83896198,8.95356967 C4.38528305,9.09353284 4.95980925,9.17824739 5.54843802,9.17824739 C5.67474794,9.17824739 5.8004447,9.17824739 5.94085719,9.1641283 C5.82803668,8.81360037 5.77223958,8.44896562 5.77223958,8.08432474" id="Fill-4" fill="#9B9B9B" mask="url(#mask-4)"></path>
                    </g>
                </g>
            </g>
        </g>
    </g>
</svg>